<?xml version="1.0" standalone="no"?>
<!DOCTYPE svg PUBLIC "-//W3C//DTD SVG 20010904//EN"
 "http://www.w3.org/TR/2001/REC-SVG-20010904/DTD/svg10.dtd">
<svg version="1.0" xmlns="http://www.w3.org/2000/svg"
 width="700.000000pt" height="700.000000pt" viewBox="0 0 700.000000 700.000000"
 preserveAspectRatio="xMidYMid meet">
<metadata>
Created by potrace 1.11, written by Peter Selinger 2001-2013
</metadata>
<g transform="translate(0.000000,700.000000) scale(0.100000,-0.100000)"
fill="#000000" stroke="none">
<path d="M60 3500 l0 -3440 3440 0 3440 0 0 3440 0 3440 -3440 0 -3440 0 0
-3440z m4707 1240 c233 -64 414 -234 487 -459 25 -76 46 -192 46 -250 l0 -31
-250 0 c-137 0 -250 2 -250 4 0 3 -5 39 -11 82 -25 180 -121 274 -280 274
-151 0 -254 -92 -274 -246 -21 -158 92 -278 370 -394 267 -111 391 -186 501
-302 116 -123 177 -270 190 -458 16 -230 -68 -448 -220 -571 -79 -64 -152
-102 -261 -135 -84 -26 -103 -28 -275 -28 -164 -1 -195 2 -270 22 -263 72
-466 246 -547 470 -33 89 -53 191 -53 263 l0 59 250 0 c196 0 250 -3 250 -13
0 -7 5 -49 10 -95 25 -199 120 -290 311 -300 163 -8 249 41 285 164 24 84 16
195 -20 268 -46 93 -122 144 -386 257 -385 164 -555 326 -621 590 -29 114 -23
279 14 392 86 263 341 443 662 466 118 8 246 -3 342 -29z m-2197 -15 c186 -28
303 -80 413 -184 121 -114 176 -264 177 -476 0 -189 -46 -313 -157 -424 -38
-38 -85 -77 -106 -88 l-39 -19 76 -37 c182 -90 276 -294 263 -567 -17 -351
-178 -562 -495 -648 l-97 -26 -502 -4 -503 -3 0 1245 0 1246 438 0 c331 0 460
-4 532 -15z"/>
<path d="M2100 4010 l0 -310 159 0 c243 0 316 30 373 155 18 41 22 68 22 150
0 109 -12 164 -47 216 -54 80 -120 99 -347 99 l-160 0 0 -310z"/>
<path d="M2100 3000 l0 -330 190 0 c166 0 196 2 244 20 92 35 138 103 158 237
20 139 -23 303 -93 355 -58 43 -90 48 -300 48 l-199 0 0 -330z"/>
</g>
</svg>
