<svg xmlns="http://www.w3.org/2000/svg" viewBox="0 0 40 40"><defs><style>.cls-1{fill:#fc5721;}</style></defs><title>ZEO-insta-small</title><g id="Layer_2" data-name="Layer 2"><g id="Layer_1-2" data-name="Layer 1"><path class="cls-1" d="M31,0H9A9,9,0,0,0,0,9V31a9,9,0,0,0,9,9H31a9,9,0,0,0,9-9V9A9,9,0,0,0,31,0ZM20.43,28.5a8.43,8.43,0,1,1,8.43-8.43A8.44,8.44,0,0,1,20.43,28.5ZM31.11,12a3.25,3.25,0,1,1,3.24-3.25A3.26,3.26,0,0,1,31.11,12Z"/><circle class="cls-1" cx="20.43" cy="20.07" r="5.84"/></g></g></svg>