<?xml version="1.0" encoding="utf-8"?><svg xmlns="http://www.w3.org/2000/svg" xmlns:xlink="http://www.w3.org/1999/xlink"><symbol viewBox="0 0 49.652 49.652" id="icon_fb" xmlns="http://www.w3.org/2000/svg"><path d="M24.826 0C11.137 0 0 11.137 0 24.826c0 13.688 11.137 24.826 24.826 24.826 13.688 0 24.826-11.138 24.826-24.826C49.652 11.137 38.516 0 24.826 0zM31 25.7h-4.039v14.396h-5.985V25.7h-2.845v-5.088h2.845v-3.291c0-2.357 1.12-6.04 6.04-6.04l4.435.017v4.939h-3.219c-.524 0-1.269.262-1.269 1.386v2.99h4.56L31 25.7z"/></symbol><symbol viewBox="0 0 40 40" id="icon_insta" xmlns="http://www.w3.org/2000/svg"><g data-name="Layer 2"><g data-name="Layer 1"><path d="M31 0H9a9 9 0 00-9 9v22a9 9 0 009 9h22a9 9 0 009-9V9a9 9 0 00-9-9zM20.43 28.5a8.43 8.43 0 118.43-8.43 8.44 8.44 0 01-8.43 8.43zM31.11 12a3.25 3.25 0 113.24-3.25A3.26 3.26 0 0131.11 12z"/><circle cx="20.43" cy="20.07" r="5.84"/></g></g></symbol></svg>